<?xml version="1.0" encoding="UTF-8" standalone="no"?>
<!DOCTYPE svg PUBLIC "-//W3C//DTD SVG 1.1//EN"
 "http://www.w3.org/Graphics/SVG/1.1/DTD/svg11.dtd">
<!-- Generated by graphviz version 2.47.0 (20210316.0004)
 -->
<!-- Title: dependencies Pages: 1 -->
<svg width="1681pt" height="284pt"
 viewBox="0.00 0.00 1681.00 284.00" xmlns="http://www.w3.org/2000/svg" xmlns:xlink="http://www.w3.org/1999/xlink">
<g id="graph0" class="graph" transform="scale(1 1) rotate(0) translate(4 280)">
<title>dependencies</title>
<polygon fill="white" stroke="transparent" points="-4,4 -4,-280 1677,-280 1677,4 -4,4"/>
<text text-anchor="start" x="815.51" y="-42.4" font-family="Times-12" font-weight="bold" font-size="14.00">Legend</text>
<polygon fill="#ffffb3" stroke="transparent" points="602.5,-10 602.5,-30 622.5,-30 622.5,-10 602.5,-10"/>
<text text-anchor="start" x="626.13" y="-15.4" font-family="Times-12" font-size="14.00"> &#160;Declarations</text>
<polygon fill="#8dd3c7" stroke="transparent" points="715.5,-10 715.5,-30 735.5,-30 735.5,-10 715.5,-10"/>
<text text-anchor="start" x="739.23" y="-15.4" font-family="Times-12" font-size="14.00"> &#160;Module</text>
<polygon fill="#80b1d3" stroke="transparent" points="801.5,-10 801.5,-30 821.5,-30 821.5,-10 801.5,-10"/>
<text text-anchor="start" x="825.28" y="-15.4" font-family="Times-12" font-size="14.00"> &#160;Bootstrap</text>
<polygon fill="#fdb462" stroke="transparent" points="898.5,-10 898.5,-30 918.5,-30 918.5,-10 898.5,-10"/>
<text text-anchor="start" x="922.17" y="-15.4" font-family="Times-12" font-size="14.00"> &#160;Providers</text>
<polygon fill="#fb8072" stroke="transparent" points="994.5,-10 994.5,-30 1014.5,-30 1014.5,-10 994.5,-10"/>
<text text-anchor="start" x="1018.23" y="-15.4" font-family="Times-12" font-size="14.00"> &#160;Exports</text>
<g id="clust1" class="cluster">
<title>cluster_AppModule</title>
<polygon fill="none" stroke="black" stroke-dasharray="1,5" points="8,-70 8,-268 1521,-268 1521,-70 8,-70"/>
</g>
<g id="clust2" class="cluster">
<title>cluster_AppModule_declarations</title>
<polygon fill="none" stroke="black" points="338,-78 338,-130 1513,-130 1513,-78 338,-78"/>
</g>
<g id="clust11" class="cluster">
<title>cluster_AppModule_imports</title>
<polygon fill="none" stroke="black" points="186,-78 186,-130 330,-130 330,-78 186,-78"/>
</g>
<g id="clust13" class="cluster">
<title>cluster_AppModule_bootstrap</title>
<polygon fill="none" stroke="black" points="1176,-208 1176,-260 1300,-260 1300,-208 1176,-208"/>
</g>
<g id="clust14" class="cluster">
<title>cluster_AppModule_providers</title>
<polygon fill="none" stroke="black" points="16,-78 16,-130 178,-130 178,-78 16,-78"/>
</g>
<g id="clust21" class="cluster">
<title>cluster_AppServerModule</title>
<polygon fill="none" stroke="black" stroke-dasharray="1,5" points="1529,-208 1529,-260 1665,-260 1665,-208 1529,-208"/>
</g>
<!-- AppComponent -->
<g id="node1" class="node">
<title>AppComponent</title>
<polygon fill="#ffffb3" stroke="black" points="1504.94,-122 1399.06,-122 1399.06,-86 1504.94,-86 1504.94,-122"/>
<text text-anchor="middle" x="1452" y="-99.8" font-family="Times,serif" font-size="14.00">AppComponent</text>
</g>
<!-- AppModule -->
<g id="node9" class="node">
<title>AppModule</title>
<polygon fill="#8dd3c7" stroke="black" points="997.66,-187 994.66,-191 973.66,-191 970.66,-187 914.34,-187 914.34,-151 997.66,-151 997.66,-187"/>
<text text-anchor="middle" x="956" y="-164.8" font-family="Times,serif" font-size="14.00">AppModule</text>
</g>
<!-- AppComponent&#45;&gt;AppModule -->
<g id="edge1" class="edge">
<title>AppComponent&#45;&gt;AppModule</title>
<path fill="none" stroke="black" d="M1452,-122.11C1452,-141.34 1452,-169 1452,-169 1452,-169 1007.86,-169 1007.86,-169"/>
<polygon fill="black" stroke="black" points="1007.86,-165.5 997.86,-169 1007.86,-172.5 1007.86,-165.5"/>
</g>
<!-- DashboardComponent -->
<g id="node2" class="node">
<title>DashboardComponent</title>
<polygon fill="#ffffb3" stroke="black" points="1380.97,-122 1239.03,-122 1239.03,-86 1380.97,-86 1380.97,-122"/>
<text text-anchor="middle" x="1310" y="-99.8" font-family="Times,serif" font-size="14.00">DashboardComponent</text>
</g>
<!-- DashboardComponent&#45;&gt;AppModule -->
<g id="edge2" class="edge">
<title>DashboardComponent&#45;&gt;AppModule</title>
<path fill="none" stroke="black" d="M1265.74,-122.02C1265.74,-139.37 1265.74,-163 1265.74,-163 1265.74,-163 1007.77,-163 1007.77,-163"/>
<polygon fill="black" stroke="black" points="1007.77,-159.5 997.77,-163 1007.77,-166.5 1007.77,-159.5"/>
</g>
<!-- LoginComponent -->
<g id="node3" class="node">
<title>LoginComponent</title>
<polygon fill="#ffffb3" stroke="black" points="1221.28,-122 1106.72,-122 1106.72,-86 1221.28,-86 1221.28,-122"/>
<text text-anchor="middle" x="1164" y="-99.8" font-family="Times,serif" font-size="14.00">LoginComponent</text>
</g>
<!-- LoginComponent&#45;&gt;AppModule -->
<g id="edge3" class="edge">
<title>LoginComponent&#45;&gt;AppModule</title>
<path fill="none" stroke="black" d="M1145.07,-122.24C1145.07,-137.57 1145.07,-157 1145.07,-157 1145.07,-157 1007.96,-157 1007.96,-157"/>
<polygon fill="black" stroke="black" points="1007.96,-153.5 997.96,-157 1007.96,-160.5 1007.96,-153.5"/>
</g>
<!-- NavbarComponent -->
<g id="node4" class="node">
<title>NavbarComponent</title>
<polygon fill="#ffffb3" stroke="black" points="1088.03,-122 965.97,-122 965.97,-86 1088.03,-86 1088.03,-122"/>
<text text-anchor="middle" x="1027" y="-99.8" font-family="Times,serif" font-size="14.00">NavbarComponent</text>
</g>
<!-- NavbarComponent&#45;&gt;AppModule -->
<g id="edge4" class="edge">
<title>NavbarComponent&#45;&gt;AppModule</title>
<path fill="none" stroke="black" d="M981.78,-122.11C981.78,-122.11 981.78,-140.99 981.78,-140.99"/>
<polygon fill="black" stroke="black" points="978.28,-140.99 981.78,-150.99 985.28,-140.99 978.28,-140.99"/>
</g>
<!-- SidebarComponent -->
<g id="node5" class="node">
<title>SidebarComponent</title>
<polygon fill="#ffffb3" stroke="black" points="948.1,-122 823.9,-122 823.9,-86 948.1,-86 948.1,-122"/>
<text text-anchor="middle" x="886" y="-99.8" font-family="Times,serif" font-size="14.00">SidebarComponent</text>
</g>
<!-- SidebarComponent&#45;&gt;AppModule -->
<g id="edge5" class="edge">
<title>SidebarComponent&#45;&gt;AppModule</title>
<path fill="none" stroke="black" d="M931.11,-122.11C931.11,-122.11 931.11,-140.99 931.11,-140.99"/>
<polygon fill="black" stroke="black" points="927.61,-140.99 931.11,-150.99 934.61,-140.99 927.61,-140.99"/>
</g>
<!-- SubscriptionComponent -->
<g id="node6" class="node">
<title>SubscriptionComponent</title>
<polygon fill="#ffffb3" stroke="black" points="806.11,-122 653.89,-122 653.89,-86 806.11,-86 806.11,-122"/>
<text text-anchor="middle" x="730" y="-99.8" font-family="Times,serif" font-size="14.00">SubscriptionComponent</text>
</g>
<!-- SubscriptionComponent&#45;&gt;AppModule -->
<g id="edge6" class="edge">
<title>SubscriptionComponent&#45;&gt;AppModule</title>
<path fill="none" stroke="black" d="M730,-122.24C730,-137.57 730,-157 730,-157 730,-157 904.28,-157 904.28,-157"/>
<polygon fill="black" stroke="black" points="904.28,-160.5 914.28,-157 904.28,-153.5 904.28,-160.5"/>
</g>
<!-- UserDetailComponent -->
<g id="node7" class="node">
<title>UserDetailComponent</title>
<polygon fill="#ffffb3" stroke="black" points="635.97,-122 494.03,-122 494.03,-86 635.97,-86 635.97,-122"/>
<text text-anchor="middle" x="565" y="-99.8" font-family="Times,serif" font-size="14.00">UserDetailComponent</text>
</g>
<!-- UserDetailComponent&#45;&gt;AppModule -->
<g id="edge7" class="edge">
<title>UserDetailComponent&#45;&gt;AppModule</title>
<path fill="none" stroke="black" d="M565,-122.02C565,-139.37 565,-163 565,-163 565,-163 904.16,-163 904.16,-163"/>
<polygon fill="black" stroke="black" points="904.16,-166.5 914.16,-163 904.16,-159.5 904.16,-166.5"/>
</g>
<!-- UserListComponent -->
<g id="node8" class="node">
<title>UserListComponent</title>
<polygon fill="#ffffb3" stroke="black" points="475.54,-122 346.46,-122 346.46,-86 475.54,-86 475.54,-122"/>
<text text-anchor="middle" x="411" y="-99.8" font-family="Times,serif" font-size="14.00">UserListComponent</text>
</g>
<!-- UserListComponent&#45;&gt;AppModule -->
<g id="edge8" class="edge">
<title>UserListComponent&#45;&gt;AppModule</title>
<path fill="none" stroke="black" d="M411,-122.11C411,-141.34 411,-169 411,-169 411,-169 904.14,-169 904.14,-169"/>
<polygon fill="black" stroke="black" points="904.14,-172.5 914.14,-169 904.14,-165.5 904.14,-172.5"/>
</g>
<!-- AppComponent  -->
<g id="node11" class="node">
<title>AppComponent </title>
<polygon fill="#80b1d3" stroke="black" points="1292.44,-252 1183.56,-252 1183.56,-216 1292.44,-216 1292.44,-252"/>
<text text-anchor="middle" x="1238" y="-229.8" font-family="Times,serif" font-size="14.00">AppComponent </text>
</g>
<!-- AppModule&#45;&gt;AppComponent  -->
<g id="edge10" class="edge">
<title>AppModule&#45;&gt;AppComponent </title>
<path fill="none" stroke="black" stroke-dasharray="1,5" d="M997.81,-181C1068.12,-181 1202.46,-181 1202.46,-181 1202.46,-181 1202.46,-205.76 1202.46,-205.76"/>
<polygon fill="black" stroke="black" points="1198.96,-205.76 1202.46,-215.76 1205.96,-205.76 1198.96,-205.76"/>
</g>
<!-- AppServerModule -->
<g id="node13" class="node">
<title>AppServerModule</title>
<polygon fill="#8dd3c7" stroke="black" points="1657.19,-252 1654.19,-256 1633.19,-256 1630.19,-252 1536.81,-252 1536.81,-216 1657.19,-216 1657.19,-252"/>
<text text-anchor="middle" x="1597" y="-229.8" font-family="Times,serif" font-size="14.00">AppServerModule</text>
</g>
<!-- AppModule&#45;&gt;AppServerModule -->
<g id="edge12" class="edge">
<title>AppModule&#45;&gt;AppServerModule</title>
<path fill="none" stroke="black" d="M998.06,-175C1140.66,-175 1597,-175 1597,-175 1597,-175 1597,-205.98 1597,-205.98"/>
<polygon fill="black" stroke="black" points="1593.5,-205.98 1597,-215.98 1600.5,-205.98 1593.5,-205.98"/>
</g>
<!-- AppRoutingModule -->
<g id="node10" class="node">
<title>AppRoutingModule</title>
<polygon fill="#8dd3c7" stroke="black" points="322.27,-122 319.27,-126 298.27,-126 295.27,-122 193.73,-122 193.73,-86 322.27,-86 322.27,-122"/>
<text text-anchor="middle" x="258" y="-99.8" font-family="Times,serif" font-size="14.00">AppRoutingModule</text>
</g>
<!-- AppRoutingModule&#45;&gt;AppModule -->
<g id="edge9" class="edge">
<title>AppRoutingModule&#45;&gt;AppModule</title>
<path fill="none" stroke="black" d="M258,-122.28C258,-143.32 258,-175 258,-175 258,-175 904.17,-175 904.17,-175"/>
<polygon fill="black" stroke="black" points="904.17,-178.5 914.17,-175 904.17,-171.5 904.17,-178.5"/>
</g>
<!-- AuthInterceptor -->
<g id="node12" class="node">
<title>AuthInterceptor</title>
<ellipse fill="#fdb462" stroke="black" cx="97" cy="-104" rx="72.91" ry="18"/>
<text text-anchor="middle" x="97" y="-99.8" font-family="Times,serif" font-size="14.00">AuthInterceptor</text>
</g>
<!-- AuthInterceptor&#45;&gt;AppModule -->
<g id="edge11" class="edge">
<title>AuthInterceptor&#45;&gt;AppModule</title>
<path fill="none" stroke="black" d="M97,-122.25C97,-145.02 97,-181 97,-181 97,-181 904.28,-181 904.28,-181"/>
<polygon fill="black" stroke="black" points="904.28,-184.5 914.28,-181 904.28,-177.5 904.28,-184.5"/>
</g>
<!-- AppServerModule&#45;&gt;AppComponent  -->
<g id="edge13" class="edge">
<title>AppServerModule&#45;&gt;AppComponent </title>
<path fill="none" stroke="black" stroke-dasharray="1,5" d="M1536.51,-234C1536.51,-234 1302.56,-234 1302.56,-234"/>
<polygon fill="black" stroke="black" points="1302.56,-230.5 1292.56,-234 1302.56,-237.5 1302.56,-230.5"/>
</g>
</g>
</svg>
